<svg xmlns="http://www.w3.org/2000/svg" xmlns:xlink="http://www.w3.org/1999/xlink" xmlns:ev="http://www.w3.org/2001/xml-events" version="1.1" baseProfile="full" xml:space="preserve" x="0px" y="0px" width="14px" height="9px" viewBox="0 0 14 9" preserveAspectRatio="none" shape-rendering="geometricPrecision"><path d="M13.0597 3.0797C13.646 2.49444 13.6469 1.5447 13.0616 0.958379C12.4764 0.372063 11.5266 0.371203 10.9403 0.956459L13.0597 3.0797ZM7.00906 7L5.94936 8.06162C6.53492 8.64613 7.48319 8.64613 8.06876 8.06162L7.00906 7ZM3.0597 0.938381C2.47338 0.353124 1.52364 0.353984 0.938381 0.9403C0.353124 1.52662 0.353984 2.47636 0.9403 3.06162L3.0597 0.938381ZM10.9403 0.956459L5.94936 5.93838L8.06876 8.06162L13.0597 3.0797L10.9403 0.956459ZM8.06876 5.93838L3.0597 0.938381L0.9403 3.06162L5.94936 8.06162L8.06876 5.93838Z" fill="#39363C"/></svg>