<svg xmlns="http://www.w3.org/2000/svg" xmlns:xlink="http://www.w3.org/1999/xlink" xmlns:ev="http://www.w3.org/2001/xml-events" version="1.1" baseProfile="full" xml:space="preserve" x="0px" y="0px" width="18px" height="17px" viewBox="0 0 18 17" preserveAspectRatio="none" shape-rendering="geometricPrecision"><path fill-rule="evenodd" clip-rule="evenodd" d="M0 1.5C0 0.671574 0.671573 0 1.5 0H16.5C17.3284 0 18 0.671574 18 1.5C18 2.32843 17.3284 3 16.5 3H1.5C0.671573 3 0 2.32843 0 1.5ZM0 8.5C0 7.67157 0.671573 7 1.5 7H16.5C17.3284 7 18 7.67157 18 8.5C18 9.32843 17.3284 10 16.5 10H1.5C0.671573 10 0 9.32843 0 8.5ZM1.5 14C0.671573 14 0 14.6716 0 15.5C0 16.3284 0.671573 17 1.5 17H9.5C10.3284 17 11 16.3284 11 15.5C11 14.6716 10.3284 14 9.5 14H1.5Z" fill="#000"/></svg>