<svg xmlns="http://www.w3.org/2000/svg" xmlns:xlink="http://www.w3.org/1999/xlink" xmlns:ev="http://www.w3.org/2001/xml-events" version="1.1" baseProfile="full" xml:space="preserve" x="0px" y="0px" width="20px" height="12px" viewBox="0 0 20 12" preserveAspectRatio="none" shape-rendering="geometricPrecision"><path d="M15.4161 10.8637C14.9391 11.4003 14.1174 11.4486 13.5808 10.9716C13.0442 10.4946 12.9958 9.67294 13.4728 9.13633L15.4161 10.8637ZM18 6L18.9716 5.13633L19.7393 6L18.9716 6.86367L18 6ZM13.4728 2.86367C12.9958 2.32706 13.0442 1.50536 13.5808 1.02837C14.1174 0.551375 14.9391 0.59971 15.4161 1.13633L13.4728 2.86367ZM2 7.3C1.28203 7.3 0.700001 6.71797 0.700001 6C0.700001 5.28203 1.28203 4.7 2 4.7V7.3ZM13.4728 9.13633L17.0284 5.13633L18.9716 6.86367L15.4161 10.8637L13.4728 9.13633ZM17.0284 6.86367L13.4728 2.86367L15.4161 1.13633L18.9716 5.13633L17.0284 6.86367ZM2 4.7H18V7.3H2V4.7Z" fill="#000"/></svg>