<svg xmlns="http://www.w3.org/2000/svg" xmlns:xlink="http://www.w3.org/1999/xlink" xmlns:ev="http://www.w3.org/2001/xml-events" version="1.1" baseProfile="full" xml:space="preserve" x="0px" y="0px" width="10px" height="10px" viewBox="0 0 10 10" preserveAspectRatio="none" shape-rendering="geometricPrecision"><path d="M1.70711 0.292893C1.31658 -0.0976311 0.683417 -0.0976311 0.292893 0.292893C-0.0976311 0.683417 -0.0976311 1.31658 0.292893 1.70711L1.70711 0.292893ZM8.29289 9.70711C8.68342 10.0976 9.31658 10.0976 9.70711 9.70711C10.0976 9.31658 10.0976 8.68342 9.70711 8.29289L8.29289 9.70711ZM9.70711 1.70711C10.0976 1.31658 10.0976 0.683417 9.70711 0.292893C9.31658 -0.0976311 8.68342 -0.0976311 8.29289 0.292893L9.70711 1.70711ZM0.292893 8.29289C-0.0976311 8.68342 -0.0976311 9.31658 0.292893 9.70711C0.683417 10.0976 1.31658 10.0976 1.70711 9.70711L0.292893 8.29289ZM0.292893 1.70711L8.29289 9.70711L9.70711 8.29289L1.70711 0.292893L0.292893 1.70711ZM8.29289 0.292893L0.292893 8.29289L1.70711 9.70711L9.70711 1.70711L8.29289 0.292893Z" fill="#fff"/></svg>