<svg xmlns="http://www.w3.org/2000/svg" xmlns:xlink="http://www.w3.org/1999/xlink" xmlns:ev="http://www.w3.org/2001/xml-events" version="1.1" baseProfile="full" xml:space="preserve" x="0px" y="0px" width="21px" height="13px" viewBox="0 0 21 13" preserveAspectRatio="none" shape-rendering="geometricPrecision">"<path d="M4.5067 12.1351C4.89693 12.526 5.53009 12.5264 5.92091 12.1362C6.31173 11.746 6.31221 11.1128 5.92198 10.722L4.5067 12.1351ZM1.78577 7.99483L1.07919 7.28719L0.371553 7.99376L1.07813 8.7014L1.78577 7.99483ZM5.92091 5.27905C6.31173 4.88882 6.31221 4.25566 5.92198 3.86484C5.53175 3.47402 4.89858 3.47355 4.50776 3.86378L5.92091 5.27905ZM3.49966 7C2.94738 7 2.49966 7.44772 2.49966 8C2.49966 8.55228 2.94738 9 3.49966 9V7ZM20.9997 1C20.9997 0.447715 20.5519 0 19.9997 0C19.4474 0 18.9997 0.447715 18.9997 1H20.9997ZM5.92198 10.722L2.4934 7.28825L1.07813 8.7014L4.5067 12.1351L5.92198 10.722ZM2.49234 8.70247L5.92091 5.27905L4.50776 3.86378L1.07919 7.28719L2.49234 8.70247ZM3.49966 9H18.9997V7H3.49966V9ZM20.9997 7V1H18.9997V7H20.9997ZM18.9997 9C20.1042 9 20.9997 8.10457 20.9997 7H18.9997V9Z" fill="#e2e8ee"/></svg>