<svg xmlns="http://www.w3.org/2000/svg" xmlns:xlink="http://www.w3.org/1999/xlink" xmlns:ev="http://www.w3.org/2001/xml-events" version="1.1" baseProfile="full" xml:space="preserve" x="0px" y="0px" width="40px" height="40px" viewBox="0 0 40 40" preserveAspectRatio="none" shape-rendering="geometricPrecision">"<path fill-rule="evenodd" clip-rule="evenodd" d="M15.0612 18.1988C15.0612 17.8323 15.575 16.9515 16.1225 16.1173C16.8538 15.0027 16.8641 13.5428 16.0643 12.4763L14.1171 9.88015C13.289 8.77596 11.7997 8.36643 10.6518 9.13277C9.38451 9.97875 8 11.239 8 12.7072C8.46646 21.6552 18.3441 31.5362 27.2916 32C28.471 32.0611 29.7336 30.7144 30.6541 29.4461C31.5156 28.2592 31.1401 26.6479 29.9668 25.768L27.5237 23.9358C26.4567 23.1357 24.9961 23.1464 23.8814 23.8786C23.0479 24.4261 22.1681 24.9398 21.8018 24.9398C19.449 24.1555 15.8454 20.5517 15.0612 18.1988Z" fill="#e2e8ee"/></svg>