<svg xmlns="http://www.w3.org/2000/svg" xmlns:xlink="http://www.w3.org/1999/xlink" xmlns:ev="http://www.w3.org/2001/xml-events" version="1.1" baseProfile="full" xml:space="preserve" x="0px" y="0px" width="20px" height="24px" viewBox="0 0 20 24" preserveAspectRatio="none" shape-rendering="geometricPrecision">"<path d="M4.00002 0.699997C2.17749 0.699997 0.700025 2.17746 0.700025 4V5C0.700025 5.71797 1.28205 6.3 2.00002 6.3C2.71799 6.3 3.30002 5.71797 3.30002 5V4C3.30002 3.6134 3.61343 3.3 4.00002 3.3H16C16.3866 3.3 16.7 3.6134 16.7 4V20C16.7 20.3866 16.3866 20.7 16 20.7H4.00002C3.61343 20.7 3.30002 20.3866 3.30002 20V19C3.30002 18.282 2.71799 17.7 2.00002 17.7C1.28205 17.7 0.700025 18.282 0.700025 19V20C0.700025 21.8225 2.17748 23.3 4.00002 23.3H16C17.8226 23.3 19.3 21.8225 19.3 20V4C19.3 2.17746 17.8226 0.699997 16 0.699997H4.00002ZM7.65795 10.197C7.18096 9.66038 7.22929 8.83869 7.76591 8.3617C8.30253 7.8847 9.12422 7.93304 9.60121 8.46966L11.9716 11.1363L12.7393 12L11.9716 12.8637L9.60121 15.5303C9.12422 16.067 8.30253 16.1153 7.76591 15.6383C7.22929 15.1613 7.18096 14.3396 7.65795 13.803L8.10505 13.3H1.99995C1.28198 13.3 0.699951 12.718 0.699951 12C0.699951 11.282 1.28198 10.7 1.99995 10.7H8.10505L7.65795 10.197Z" fill="#16b572"/></svg>