<svg xmlns="http://www.w3.org/2000/svg" xmlns:xlink="http://www.w3.org/1999/xlink" xmlns:ev="http://www.w3.org/2001/xml-events" version="1.1" baseProfile="full" xml:space="preserve" x="0px" y="0px" width="22px" height="22px" viewBox="0 0 22 22" preserveAspectRatio="none" shape-rendering="geometricPrecision">"<path d="M0.00683594 7.47137C0.00684349 6.32128 0.80612 5.42697 1.94247 5.42697H20.0575C21.1939 5.42697 21.9931 6.34717 21.9931 7.47137V10.2244C21.9512 10.7136 21.5304 11.0899 21.0253 11.0899L0.974653 11.0899C0.469558 11.0899 0.0487818 10.7136 0.00683594 10.2244V7.47137Z" fill="#16b572"/><path fill-rule="evenodd" clip-rule="evenodd" d="M4.0111 3.42499C3.65317 1.59502 5.1624 0 6.99467 0C8.69614 0 9.78579 1.00923 10.4679 2.16574C11.1391 3.30364 11.4869 4.69011 11.7124 5.71804L11.8912 6.5333L11.0344 6.57267C9.94745 6.62261 8.40624 6.66834 7.05544 6.32128C5.67701 5.96711 4.3478 5.15486 4.0111 3.42499ZM6.99467 1.41573C6.00778 1.41573 5.2673 2.26691 5.44227 3.16082C5.63478 4.1504 6.34873 4.67533 7.42778 4.95257C8.25409 5.16488 9.20529 5.20314 10.0921 5.18787C9.88511 4.38774 9.60911 3.5565 9.20407 2.86978C8.66751 1.96007 7.97936 1.41573 6.99467 1.41573Z" fill="#16b572"/><path fill-rule="evenodd" clip-rule="evenodd" d="M16.5434 3.89243C16.8114 2.43377 15.713 0.94382 14.0815 0.94382C12.637 0.94382 11.7518 1.86249 11.2263 2.83023C10.707 3.78663 10.4504 4.9365 10.2858 5.73534L10.1199 6.54009L10.9634 6.58133C11.8379 6.62409 13.0556 6.64958 14.1234 6.34717C15.229 6.03404 16.2806 5.32875 16.5434 3.89243ZM14.0815 2.35955C14.7126 2.35955 15.2348 2.96102 15.1093 3.64368C14.975 4.37839 14.4871 4.76954 13.7158 4.98798C13.1645 5.14411 12.526 5.19059 11.899 5.19086C12.0461 4.60363 12.2384 3.99982 12.5147 3.49097C12.9176 2.74898 13.4076 2.35955 14.0815 2.35955Z" fill="#16b572"/><path d="M10.0288 14C10.0288 13.4787 9.59401 13.0562 9.05765 13.0562L1.99999 13V20.7323C2.07793 21.4529 2.70318 22 3.44877 22H10.0288V14Z" fill="#16b572"/><path d="M11.9712 22H18.6087C19.3543 22 19.9796 21.4529 20.0575 20.7323L20.2261 13.0562H12.9423C12.406 13.0562 11.9712 13.4787 11.9712 14V22Z" fill="#16b572"/></svg>